<?xml version="1.0" standalone="no"?><!DOCTYPE svg PUBLIC "-//W3C//DTD SVG 1.1//EN" "http://www.w3.org/Graphics/SVG/1.1/DTD/svg11.dtd"><svg aria-hidden="true" class="svg-icon svg-icon-arrow-right" width="15" height="15" viewBox="0 0 611.987 611.987" version="1.1" xmlns="http://www.w3.org/2000/svg" xmlns:xlink="http://www.w3.org/1999/xlink" style="border-bottom-color:rgb(204, 0, 1);border-left-color:rgb(204, 0, 1);border-right-color:rgb(204, 0, 1);border-top-color:rgb(204, 0, 1);color:rgb(204, 0, 1);cursor:pointer;display:inline-block;height:15px;outline-color:rgb(204, 0, 1);text-align:center;text-decoration:none solid rgb(204, 0, 1);text-decoration-color:rgb(204, 0, 1);text-rendering:auto;width:15px;column-rule-color:rgb(204, 0, 1);align-self:flex-start;perspective-origin:7.5px 7.5px;-webkit-text-emphasis-color:rgb(204, 0, 1);-webkit-text-fill-color:rgb(204, 0, 1);-webkit-text-stroke-color:rgb(204, 0, 1);transform-origin:7.5px 7.5px;fill:rgb(204, 0, 1);caret-color:rgb(204, 0, 1);"><path d="M604.652 287.018c-.532-.532-1.225-.692-1.757-1.171L417.717 100.668c-10.329-10.329-27.074-10.329-37.377 0-10.328 10.329-10.328 27.074 0 37.376l141.334 141.333H26.622C11.926 279.377 0 291.304 0 306c0 14.694 11.926 26.621 26.622 26.621h495.052L380.341 473.954c-10.329 10.329-10.329 27.074 0 37.376 10.329 10.303 27.073 10.329 37.376 0l185.232-185.258c.532-.453 1.197-.612 1.703-1.092.825-.825.825-1.97 1.518-2.875 2.263-2.796 3.86-5.856 4.818-9.158.346-1.277.586-2.396.719-3.7 1.092-7.907-.958-16.16-7.055-22.229z" style="border-bottom-color:rgb(204, 0, 1);border-left-color:rgb(204, 0, 1);border-right-color:rgb(204, 0, 1);border-top-color:rgb(204, 0, 1);color:rgb(204, 0, 1);cursor:pointer;height:auto;outline-color:rgb(204, 0, 1);overflow-x:visible;overflow-y:visible;text-align:center;text-decoration:none solid rgb(204, 0, 1);text-decoration-color:rgb(204, 0, 1);text-rendering:auto;width:auto;column-rule-color:rgb(204, 0, 1);perspective-origin:0px 0px;-webkit-text-emphasis-color:rgb(204, 0, 1);-webkit-text-fill-color:rgb(204, 0, 1);-webkit-text-stroke-color:rgb(204, 0, 1);transform-origin:0px 0px;fill:rgb(204, 0, 1);d:path('M 604.652 287.018 c -0.532 -0.532 -1.225 -0.692 -1.757 -1.171 L 417.717 100.668 c -10.329 -10.329 -27.074 -10.329 -37.377 0 c -10.328 10.329 -10.328 27.074 0 37.376 l 141.334 141.333 H 26.622 C 11.926 279.377 0 291.304 0 306 c 0 14.694 11.926 26.621 26.622 26.621 h 495.052 L 380.341 473.954 c -10.329 10.329 -10.329 27.074 0 37.376 c 10.329 10.303 27.073 10.329 37.376 0 l 185.232 -185.258 c 0.532 -0.453 1.197 -0.612 1.703 -1.092 c 0.825 -0.825 0.825 -1.97 1.518 -2.875 c 2.263 -2.796 3.86 -5.856 4.818 -9.158 c 0.346 -1.277 0.586 -2.396 0.719 -3.7 c 1.092 -7.907 -0.958 -16.16 -7.055 -22.229 Z');caret-color:rgb(204, 0, 1);"/></svg>