<?xml version="1.0" standalone="no"?><!DOCTYPE svg PUBLIC "-//W3C//DTD SVG 1.1//EN" "http://www.w3.org/Graphics/SVG/1.1/DTD/svg11.dtd"><svg aria-hidden="true" class="svg-icon svg-icon-pinterest" viewBox="0 0 14.003149 18" width="15" height="19" version="1.1" xmlns="http://www.w3.org/2000/svg" xmlns:xlink="http://www.w3.org/1999/xlink" style="cursor:pointer;display:inline-block;font-size:12px;height:19px;line-height:12px;list-style-type:none;text-align:left;width:15px;perspective-origin:7.5px 9.5px;transform-origin:7.5px 9.5px;"><path d="M13.92 5.005C13.43 1.448 9.884-.363 6.101.061 3.111.396.13 2.814.006 6.27-.069 8.38.53 9.964 2.537 10.41c.87-1.54-.28-1.876-.46-2.99C1.34 2.862 7.333-.25 10.472 2.934c2.174 2.205.741 8.984-2.76 8.279-3.353-.673 1.643-6.07-1.033-7.128-2.176-.862-3.332 2.633-2.3 4.37C3.774 11.442 2.471 14.255 3 18c1.71-1.242 2.287-3.617 2.76-6.095.859.523 1.319 1.064 2.415 1.148 4.04.314 6.3-4.034 5.746-8.048z" style="cursor:pointer;font-size:12px;height:auto;line-height:12px;list-style-type:none;overflow-x:visible;overflow-y:visible;text-align:left;width:auto;perspective-origin:0px 0px;transform-origin:0px 0px;d:path('M 13.92 5.005 C 13.43 1.448 9.884 -0.363 6.101 0.061 C 3.111 0.396 0.13 2.814 0.006 6.27 C -0.069 8.38 0.53 9.964 2.537 10.41 c 0.87 -1.54 -0.28 -1.876 -0.46 -2.99 C 1.34 2.862 7.333 -0.25 10.472 2.934 c 2.174 2.205 0.741 8.984 -2.76 8.279 c -3.353 -0.673 1.643 -6.07 -1.033 -7.128 c -2.176 -0.862 -3.332 2.633 -2.3 4.37 C 3.774 11.442 2.471 14.255 3 18 c 1.71 -1.242 2.287 -3.617 2.76 -6.095 c 0.859 0.523 1.319 1.064 2.415 1.148 c 4.04 0.314 6.3 -4.034 5.746 -8.048 Z');"/></svg>