<?xml version="1.0" standalone="no"?><!DOCTYPE svg PUBLIC "-//W3C//DTD SVG 1.1//EN" "http://www.w3.org/Graphics/SVG/1.1/DTD/svg11.dtd"><svg aria-hidden="true" class="svg-icon svg-icon-facebook" width="10" height="21" viewBox="0 0 9.731719 18" version="1.1" xmlns="http://www.w3.org/2000/svg" xmlns:xlink="http://www.w3.org/1999/xlink" style="cursor:pointer;display:inline-block;font-size:12px;height:21px;line-height:12px;list-style-type:none;text-align:left;width:10px;perspective-origin:5px 10.5px;transform-origin:5px 10.5px;"><path d="M9.365.004L7.031 0C4.41 0 2.714 1.739 2.714 4.43v2.042H.367A.367.367 0 0 0 0 6.84V9.8c0 .203.164.367.367.367h2.347v7.467c0 .203.164.367.367.367h3.062a.367.367 0 0 0 .367-.367v-7.467h2.744a.367.367 0 0 0 .367-.367l.001-2.96a.368.368 0 0 0-.367-.367H6.51V4.741c0-.832.198-1.255 1.282-1.255h1.573a.367.367 0 0 0 .367-.367V.37a.367.367 0 0 0-.367-.367z" style="cursor:pointer;font-size:12px;height:auto;line-height:12px;list-style-type:none;overflow-x:visible;overflow-y:visible;text-align:left;width:auto;perspective-origin:0px 0px;transform-origin:0px 0px;d:path('M 9.365 0.004 L 7.031 0 C 4.41 0 2.714 1.739 2.714 4.43 v 2.042 H 0.367 A 0.367 0.367 0 0 0 0 6.84 V 9.8 c 0 0.203 0.164 0.367 0.367 0.367 h 2.347 v 7.467 c 0 0.203 0.164 0.367 0.367 0.367 h 3.062 a 0.367 0.367 0 0 0 0.367 -0.367 v -7.467 h 2.744 a 0.367 0.367 0 0 0 0.367 -0.367 l 0.001 -2.96 a 0.368 0.368 0 0 0 -0.367 -0.367 H 6.51 V 4.741 c 0 -0.832 0.198 -1.255 1.282 -1.255 h 1.573 a 0.367 0.367 0 0 0 0.367 -0.367 V 0.37 a 0.367 0.367 0 0 0 -0.367 -0.367 Z');"/>
            </svg>