<?xml version="1.0" standalone="no"?><!DOCTYPE svg PUBLIC "-//W3C//DTD SVG 1.1//EN" "http://www.w3.org/Graphics/SVG/1.1/DTD/svg11.dtd"><svg aria-hidden="true" class="svg-icon svg-icon-search" version="1.1" width="20" height="20.615" viewBox="0 0 19.999998 20.614708" xmlns="http://www.w3.org/2000/svg" xmlns:xlink="http://www.w3.org/1999/xlink" style="cursor:pointer;display:inline-block;height:14px;text-align:center;text-rendering:auto;width:20px;align-self:flex-start;perspective-origin:10px 7px;transform-origin:10px 7px;"><path d="M8.745 17.496C3.92 17.496 0 13.57 0 8.751 0 3.931 3.92 0 8.745 0c4.825 0 8.745 3.926 8.745 8.745 0 4.82-3.925 8.751-8.745 8.751zm0-15.28a6.54 6.54 0 0 0-6.529 6.53 6.54 6.54 0 0 0 6.53 6.528 6.54 6.54 0 0 0 6.528-6.529 6.54 6.54 0 0 0-6.529-6.529z" style="cursor:pointer;height:auto;overflow-x:visible;overflow-y:visible;text-align:center;text-rendering:auto;width:auto;perspective-origin:0px 0px;transform-origin:0px 0px;d:path('M 8.745 17.496 C 3.92 17.496 0 13.57 0 8.751 C 0 3.931 3.92 0 8.745 0 c 4.825 0 8.745 3.926 8.745 8.745 c 0 4.82 -3.925 8.751 -8.745 8.751 Z m 0 -15.28 a 6.54 6.54 0 0 0 -6.529 6.53 a 6.54 6.54 0 0 0 6.53 6.528 a 6.54 6.54 0 0 0 6.528 -6.529 a 6.54 6.54 0 0 0 -6.529 -6.529 Z');"/><path d="M13.344 15.805l1.513-1.619L20 18.996l-1.514 1.619z" style="cursor:pointer;height:auto;overflow-x:visible;overflow-y:visible;text-align:center;text-rendering:auto;width:auto;perspective-origin:0px 0px;transform-origin:0px 0px;d:path('M 13.344 15.805 l 1.513 -1.619 L 20 18.996 l -1.514 1.619 Z');"/></svg>