<?xml version="1.0" standalone="no"?><!DOCTYPE svg PUBLIC "-//W3C//DTD SVG 1.1//EN" "http://www.w3.org/Graphics/SVG/1.1/DTD/svg11.dtd"><svg aria-hidden="true" class="svg-icon svg-icon-bag" version="1.1" width="20" height="23" viewBox="0 0 20 23" xmlns="http://www.w3.org/2000/svg" xmlns:xlink="http://www.w3.org/1999/xlink" style="border-bottom-color:rgb(76, 76, 76);border-left-color:rgb(76, 76, 76);border-right-color:rgb(76, 76, 76);border-top-color:rgb(76, 76, 76);color:rgb(76, 76, 76);cursor:pointer;display:inline-block;font-size:10px;height:23px;line-height:10px;list-style-type:none;outline-color:rgb(76, 76, 76);text-align:left;text-decoration:none solid rgb(76, 76, 76);text-decoration-color:rgb(76, 76, 76);width:20px;column-rule-color:rgb(76, 76, 76);perspective-origin:10px 11.5px;-webkit-text-emphasis-color:rgb(76, 76, 76);-webkit-text-fill-color:rgb(76, 76, 76);-webkit-text-stroke-color:rgb(76, 76, 76);transform-origin:10px 11.5px;fill:rgb(76, 76, 76);caret-color:rgb(76, 76, 76);"><path d="M1.348 22.906C.905 22.74.238 22.07.062 21.612c-.292-.756.52-16.77.88-17.38.485-.818 1.222-1.052 3.32-1.052H6.13l.45-.948c1.45-3.04 5.778-2.955 6.96.138l.308.81h1.888c3.74 0 3.545-.476 4.01 9.784.393 8.674.39 8.755-.438 9.525l-.485.45-8.602.03c-4.73.02-8.72-.01-8.87-.07zM18.31 20.73c.003-1.068-.55-13.554-.648-14.617l-.102-1.128H13.8v1.86c0 1.968-.12 2.29-.84 2.29-.718 0-.965-.633-.965-2.476V4.98H7.843v1.86c0 1.952-.12 2.29-.812 2.29-.69 0-.81-.338-.81-2.29V4.98H2.46l-.097.947c-.094.897-.66 13.74-.655 14.8l.003.494h16.6l.003-.493zM11.823 2.833c-.765-1.428-2.86-1.428-3.624 0l-.19.347h3.993l-.185-.347z" style="border-bottom-color:rgb(76, 76, 76);border-left-color:rgb(76, 76, 76);border-right-color:rgb(76, 76, 76);border-top-color:rgb(76, 76, 76);color:rgb(76, 76, 76);cursor:pointer;font-size:10px;height:auto;line-height:10px;list-style-type:none;outline-color:rgb(76, 76, 76);overflow-x:visible;overflow-y:visible;text-align:left;text-decoration:none solid rgb(76, 76, 76);text-decoration-color:rgb(76, 76, 76);width:auto;column-rule-color:rgb(76, 76, 76);perspective-origin:0px 0px;-webkit-text-emphasis-color:rgb(76, 76, 76);-webkit-text-fill-color:rgb(76, 76, 76);-webkit-text-stroke-color:rgb(76, 76, 76);transform-origin:0px 0px;fill:rgb(76, 76, 76);d:path('M 1.348 22.906 C 0.905 22.74 0.238 22.07 0.062 21.612 c -0.292 -0.756 0.52 -16.77 0.88 -17.38 c 0.485 -0.818 1.222 -1.052 3.32 -1.052 H 6.13 l 0.45 -0.948 c 1.45 -3.04 5.778 -2.955 6.96 0.138 l 0.308 0.81 h 1.888 c 3.74 0 3.545 -0.476 4.01 9.784 c 0.393 8.674 0.39 8.755 -0.438 9.525 l -0.485 0.45 l -8.602 0.03 c -4.73 0.02 -8.72 -0.01 -8.87 -0.07 Z M 18.31 20.73 c 0.003 -1.068 -0.55 -13.554 -0.648 -14.617 l -0.102 -1.128 H 13.8 v 1.86 c 0 1.968 -0.12 2.29 -0.84 2.29 c -0.718 0 -0.965 -0.633 -0.965 -2.476 V 4.98 H 7.843 v 1.86 c 0 1.952 -0.12 2.29 -0.812 2.29 c -0.69 0 -0.81 -0.338 -0.81 -2.29 V 4.98 H 2.46 l -0.097 0.947 c -0.094 0.897 -0.66 13.74 -0.655 14.8 l 0.003 0.494 h 16.6 l 0.003 -0.493 Z M 11.823 2.833 c -0.765 -1.428 -2.86 -1.428 -3.624 0 l -0.19 0.347 h 3.993 l -0.185 -0.347 Z');caret-color:rgb(76, 76, 76);"/></svg>