<?xml version="1.0" standalone="no"?><!DOCTYPE svg PUBLIC "-//W3C//DTD SVG 1.1//EN" "http://www.w3.org/Graphics/SVG/1.1/DTD/svg11.dtd"><svg aria-hidden="true" class="svg-icon svg-icon-twitter" viewBox="0 0 22.159645 17.999998" width="24" height="19" version="1.1" xmlns="http://www.w3.org/2000/svg" xmlns:xlink="http://www.w3.org/1999/xlink" style="cursor:pointer;display:inline-block;font-size:12px;height:19px;line-height:12px;list-style-type:none;text-align:left;width:24px;perspective-origin:12px 9.5px;transform-origin:12px 9.5px;"><path d="M22.16 2.13a9.078 9.078 0 0 1-2.61.716A4.565 4.565 0 0 0 21.547.332c-.881.521-1.853.899-2.889 1.104a4.546 4.546 0 0 0-7.746 4.144c-3.778-.19-7.127-2-9.37-4.75A4.511 4.511 0 0 0 .93 3.117c0 1.577.803 2.968 2.022 3.783a4.546 4.546 0 0 1-2.06-.57v.056a4.55 4.55 0 0 0 3.647 4.457c-.381.103-.783.16-1.198.16-.294 0-.577-.03-.856-.085a4.548 4.548 0 0 0 4.246 3.157 9.12 9.12 0 0 1-5.646 1.943c-.367 0-.728-.022-1.084-.062A12.85 12.85 0 0 0 6.968 18C15.33 18 19.9 11.074 19.9 5.067l-.015-.589A9.078 9.078 0 0 0 22.16 2.13z" style="cursor:pointer;font-size:12px;height:auto;line-height:12px;list-style-type:none;overflow-x:visible;overflow-y:visible;text-align:left;width:auto;perspective-origin:0px 0px;transform-origin:0px 0px;d:path('M 22.16 2.13 a 9.078 9.078 0 0 1 -2.61 0.716 A 4.565 4.565 0 0 0 21.547 0.332 c -0.881 0.521 -1.853 0.899 -2.889 1.104 a 4.546 4.546 0 0 0 -7.746 4.144 c -3.778 -0.19 -7.127 -2 -9.37 -4.75 A 4.511 4.511 0 0 0 0.93 3.117 c 0 1.577 0.803 2.968 2.022 3.783 a 4.546 4.546 0 0 1 -2.06 -0.57 v 0.056 a 4.55 4.55 0 0 0 3.647 4.457 c -0.381 0.103 -0.783 0.16 -1.198 0.16 c -0.294 0 -0.577 -0.03 -0.856 -0.085 a 4.548 4.548 0 0 0 4.246 3.157 a 9.12 9.12 0 0 1 -5.646 1.943 c -0.367 0 -0.728 -0.022 -1.084 -0.062 A 12.85 12.85 0 0 0 6.968 18 C 15.33 18 19.9 11.074 19.9 5.067 l -0.015 -0.589 A 9.078 9.078 0 0 0 22.16 2.13 Z');"/>
            </svg>