<?xml version="1.0" standalone="no"?><!DOCTYPE svg PUBLIC "-//W3C//DTD SVG 1.1//EN" "http://www.w3.org/Graphics/SVG/1.1/DTD/svg11.dtd"><svg aria-hidden="true" class="svg-icon svg-icon-arrow-up" viewBox="0 0 9.9999997 12" width="10" height="12" version="1.1" xmlns="http://www.w3.org/2000/svg" xmlns:xlink="http://www.w3.org/1999/xlink" style="cursor:pointer;display:inline-block;font-family:ars_maquette_probold, sans-serif;font-size:14px;height:12px;line-height:14px;margin-left:10px;text-align:center;width:10px;perspective-origin:5px 6px;transform-origin:5px 6px;"><path d="M1.226 4.713a.8.8 0 0 1-1.02 0 .564.564 0 0 1 0-.873L4.477.183A.798.798 0 0 1 4.997 0c.204 0 .387.07.52.183l4.27 3.657a.552.552 0 0 1 0 .873.8.8 0 0 1-1.019 0L5.72 2.094v9.295c0 .34-.326.611-.723.611-.398 0-.714-.27-.714-.61V2.094L1.226 4.713z" style="cursor:pointer;font-family:ars_maquette_probold, sans-serif;font-size:14px;height:auto;line-height:14px;overflow-x:visible;overflow-y:visible;text-align:center;width:auto;perspective-origin:0px 0px;transform-origin:0px 0px;d:path('M 1.226 4.713 a 0.8 0.8 0 0 1 -1.02 0 a 0.564 0.564 0 0 1 0 -0.873 L 4.477 0.183 A 0.798 0.798 0 0 1 4.997 0 c 0.204 0 0.387 0.07 0.52 0.183 l 4.27 3.657 a 0.552 0.552 0 0 1 0 0.873 a 0.8 0.8 0 0 1 -1.019 0 L 5.72 2.094 v 9.295 c 0 0.34 -0.326 0.611 -0.723 0.611 c -0.398 0 -0.714 -0.27 -0.714 -0.61 V 2.094 L 1.226 4.713 Z');"/></svg>