<?xml version="1.0" standalone="no"?><!DOCTYPE svg PUBLIC "-//W3C//DTD SVG 1.1//EN" "http://www.w3.org/Graphics/SVG/1.1/DTD/svg11.dtd"><svg aria-hidden="true" class="svg-icon svg-icon-instagram" viewBox="0 0 30 30" width="30" height="30" version="1.1" xmlns="http://www.w3.org/2000/svg" xmlns:xlink="http://www.w3.org/1999/xlink" style="display:inline-block;height:30px;text-align:center;width:30px;perspective-origin:50% 50%;transform-origin:50% 50%;"><g transform="matrix(1.2 0 0 1.2 -3 -3)" style="height:auto;overflow-x:visible;overflow-y:visible;text-align:center;width:auto;perspective-origin:50% 50%;transform-origin:0px 0px;"><path d="M15 4.8c3.3 0 3.7 0 5.1.1 1.2.1 1.9.3 2.3.4.6.2 1 .5 1.4.9.4.4.7.9.9 1.4.2.4.4 1.1.4 2.3.1 1.3.1 1.7.1 5.1 0 3.4 0 3.7-.1 5.1-.1 1.2-.3 1.9-.4 2.3-.2.6-.5 1-.9 1.4-.4.4-.9.7-1.4.9-.4.2-1.1.4-2.3.4-1.3.1-1.7.1-5.1.1-3.4 0-3.7 0-5.1-.1-1.2-.1-1.9-.3-2.3-.4-.6-.2-1-.5-1.4-.9-.4-.4-.7-.9-.9-1.4-.2-.4-.4-1.1-.4-2.3-.1-1.3-.1-1.7-.1-5.1 0-3.4 0-3.7.1-5.1.1-1.2.3-1.9.4-2.3.2-.6.5-1 .9-1.4.4-.4.8-.7 1.4-.9.4-.2 1.1-.4 2.3-.4 1.4-.1 1.8-.1 5.1-.1m0-2.3c-3.4 0-3.8 0-5.2.1-1.3.1-2.2.3-3 .6-.8.3-1.5.7-2.2 1.4-.7.7-1.1 1.4-1.4 2.2-.3.8-.5 1.7-.6 3-.1 1.3-.1 1.8-.1 5.2 0 3.4 0 3.8.1 5.2.1 1.3.3 2.2.6 3 .3.8.7 1.5 1.4 2.2.7.7 1.4 1.1 2.2 1.4.8.3 1.7.5 3 .6 1.3.1 1.8.1 5.2.1 3.4 0 3.8 0 5.2-.1 1.3-.1 2.2-.3 3-.6.8-.3 1.5-.7 2.2-1.4.7-.7 1.1-1.4 1.4-2.2.3-.8.5-1.7.6-3 .1-1.3.1-1.8.1-5.2 0-3.4 0-3.8-.1-5.2-.1-1.3-.3-2.2-.6-3-.3-.8-.7-1.5-1.4-2.2-.7-.7-1.4-1.1-2.2-1.4-.8-.3-1.7-.5-3-.6-1.4-.1-1.8-.1-5.2-.1z" style="height:auto;overflow-x:visible;overflow-y:visible;text-align:center;width:auto;perspective-origin:50% 50%;transform-origin:0px 0px;d:path('M 15 4.8 c 3.3 0 3.7 0 5.1 0.1 c 1.2 0.1 1.9 0.3 2.3 0.4 c 0.6 0.2 1 0.5 1.4 0.9 c 0.4 0.4 0.7 0.9 0.9 1.4 c 0.2 0.4 0.4 1.1 0.4 2.3 c 0.1 1.3 0.1 1.7 0.1 5.1 c 0 3.4 0 3.7 -0.1 5.1 c -0.1 1.2 -0.3 1.9 -0.4 2.3 c -0.2 0.6 -0.5 1 -0.9 1.4 c -0.4 0.4 -0.9 0.7 -1.4 0.9 c -0.4 0.2 -1.1 0.4 -2.3 0.4 c -1.3 0.1 -1.7 0.1 -5.1 0.1 c -3.4 0 -3.7 0 -5.1 -0.1 c -1.2 -0.1 -1.9 -0.3 -2.3 -0.4 c -0.6 -0.2 -1 -0.5 -1.4 -0.9 c -0.4 -0.4 -0.7 -0.9 -0.9 -1.4 c -0.2 -0.4 -0.4 -1.1 -0.4 -2.3 c -0.1 -1.3 -0.1 -1.7 -0.1 -5.1 c 0 -3.4 0 -3.7 0.1 -5.1 c 0.1 -1.2 0.3 -1.9 0.4 -2.3 c 0.2 -0.6 0.5 -1 0.9 -1.4 c 0.4 -0.4 0.8 -0.7 1.4 -0.9 c 0.4 -0.2 1.1 -0.4 2.3 -0.4 c 1.4 -0.1 1.8 -0.1 5.1 -0.1 m 0 -2.3 c -3.4 0 -3.8 0 -5.2 0.1 c -1.3 0.1 -2.2 0.3 -3 0.6 c -0.8 0.3 -1.5 0.7 -2.2 1.4 c -0.7 0.7 -1.1 1.4 -1.4 2.2 c -0.3 0.8 -0.5 1.7 -0.6 3 c -0.1 1.3 -0.1 1.8 -0.1 5.2 c 0 3.4 0 3.8 0.1 5.2 c 0.1 1.3 0.3 2.2 0.6 3 c 0.3 0.8 0.7 1.5 1.4 2.2 c 0.7 0.7 1.4 1.1 2.2 1.4 c 0.8 0.3 1.7 0.5 3 0.6 c 1.3 0.1 1.8 0.1 5.2 0.1 c 3.4 0 3.8 0 5.2 -0.1 c 1.3 -0.1 2.2 -0.3 3 -0.6 c 0.8 -0.3 1.5 -0.7 2.2 -1.4 c 0.7 -0.7 1.1 -1.4 1.4 -2.2 c 0.3 -0.8 0.5 -1.7 0.6 -3 c 0.1 -1.3 0.1 -1.8 0.1 -5.2 c 0 -3.4 0 -3.8 -0.1 -5.2 c -0.1 -1.3 -0.3 -2.2 -0.6 -3 c -0.3 -0.8 -0.7 -1.5 -1.4 -2.2 c -0.7 -0.7 -1.4 -1.1 -2.2 -1.4 c -0.8 -0.3 -1.7 -0.5 -3 -0.6 c -1.4 -0.1 -1.8 -0.1 -5.2 -0.1 Z');"/><path d="M15 8.6c-3.5 0-6.4 2.9-6.4 6.4 0 3.5 2.9 6.4 6.4 6.4 3.5 0 6.4-2.9 6.4-6.4 0-3.5-2.9-6.4-6.4-6.4zm0 10.6c-2.3 0-4.2-1.9-4.2-4.2 0-2.3 1.9-4.2 4.2-4.2 2.3 0 4.2 1.9 4.2 4.2 0 2.3-1.9 4.2-4.2 4.2z" style="height:auto;overflow-x:visible;overflow-y:visible;text-align:center;width:auto;perspective-origin:50% 50%;transform-origin:0px 0px;d:path('M 15 8.6 c -3.5 0 -6.4 2.9 -6.4 6.4 c 0 3.5 2.9 6.4 6.4 6.4 c 3.5 0 6.4 -2.9 6.4 -6.4 c 0 -3.5 -2.9 -6.4 -6.4 -6.4 Z m 0 10.6 c -2.3 0 -4.2 -1.9 -4.2 -4.2 c 0 -2.3 1.9 -4.2 4.2 -4.2 c 2.3 0 4.2 1.9 4.2 4.2 c 0 2.3 -1.9 4.2 -4.2 4.2 Z');"/><circle cx="21.7" cy="8.3" r="1.5" style="height:auto;overflow-x:visible;overflow-y:visible;text-align:center;width:auto;perspective-origin:50% 50%;transform-origin:0px 0px;cx:21.7px;cy:8.3px;r:1.5px;"/></g></svg>